<svg id="Layer_1" data-name="Layer 1" xmlns="http://www.w3.org/2000/svg" width="256" height="256" viewBox="0 0 256 256"><title>cone</title><polygon points="128.3 243.4 209.5 20.9 47.2 20.9 128.3 243.4" fill="#f0de7f" stroke="#70683f" stroke-linecap="round" stroke-linejoin="round" stroke-width="4"/><path d="M97,87.3l5.4-10.9-7.6-3.3L89.3,84l-7.5-3.3,5.5-10.9-7.7-3.4L82.4,60l8,3.6,6.2-12.4-8.7-3.8,2.8-6.3,9,3.9,5.5-10.9,7.4,3.3-5.4,10.9,7.6,3.3,5.4-10.9,7.5,3.3-5.5,10.9,7.7,3.4-2.8,6.4-8-3.6L113,73.5l8.6,3.8-2.8,6.4-9-4-5.4,10.9Zm8.5-17.1,6.2-12.3L104,54.5,97.9,66.9Z" fill="#70683f"/></svg>