<svg id="Layer_1" data-name="Layer 1" xmlns="http://www.w3.org/2000/svg" width="256" height="256" viewBox="0 0 256 256"><title>mint-chip</title><circle cx="128" cy="128" r="91" fill="#bdffd9" stroke="#7ba68d" stroke-miterlimit="10" stroke-width="4"/><line x1="68.1" y1="84.4" x2="79.2" y2="91.9" fill="#bdffd9" stroke="#512500" stroke-linecap="round" stroke-linejoin="round" stroke-width="4"/><line x1="104.7" y1="177.2" x2="97.2" y2="188.4" fill="#bdffd9" stroke="#512500" stroke-linecap="round" stroke-linejoin="round" stroke-width="4"/><line x1="171.1" y1="90.1" x2="163.6" y2="101.3" fill="#bdffd9" stroke="#512500" stroke-linecap="round" stroke-linejoin="round" stroke-width="4"/><line x1="195.4" y1="132.2" x2="202.9" y2="140.6" fill="#bdffd9" stroke="#512500" stroke-linecap="round" stroke-linejoin="round" stroke-width="4"/><line x1="120.3" y1="186.2" x2="127.8" y2="194.6" fill="#bdffd9" stroke="#512500" stroke-linecap="round" stroke-linejoin="round" stroke-width="4"/><line x1="138" y1="61.6" x2="145.5" y2="70" fill="#bdffd9" stroke="#512500" stroke-linecap="round" stroke-linejoin="round" stroke-width="4"/><line x1="160.8" y1="142.3" x2="147" y2="154" fill="#bdffd9" stroke="#512500" stroke-linecap="round" stroke-linejoin="round" stroke-width="4"/><line x1="195.9" y1="91.9" x2="183.2" y2="109.4" fill="#bdffd9" stroke="#512500" stroke-linecap="round" stroke-linejoin="round" stroke-width="4"/><line x1="85.2" y1="161.5" x2="72.5" y2="178.9" fill="#bdffd9" stroke="#512500" stroke-linecap="round" stroke-linejoin="round" stroke-width="4"/><line x1="120.1" y1="100.8" x2="128.1" y2="107.4" fill="#bdffd9" stroke="#512500" stroke-linecap="round" stroke-linejoin="round" stroke-width="4"/><line x1="167.3" y1="173.9" x2="175.3" y2="180.5" fill="#bdffd9" stroke="#512500" stroke-linecap="round" stroke-linejoin="round" stroke-width="4"/><line x1="56.8" y1="128" x2="73.6" y2="136.4" fill="#bdffd9" stroke="#512500" stroke-linecap="round" stroke-linejoin="round" stroke-width="4"/><line x1="104.4" y1="132.2" x2="97.6" y2="142.3" fill="#bdffd9" stroke="#512500" stroke-linecap="round" stroke-linejoin="round" stroke-width="4"/><line x1="101" y1="54.5" x2="115.8" y2="63.8" fill="#bdffd9" stroke="#512500" stroke-linecap="round" stroke-linejoin="round" stroke-width="4"/></svg>